<svg width="48" height="48" xmlns="http://www.w3.org/2000/svg">

 <g>
  <title>background</title>
  <rect fill="none" id="canvas_background" height="402" width="582" y="-1" x="-1"/>
 </g>
 <g>
  <title>Layer 1</title>
  <path id="svg_2" fill="#e12533" d="m23.99976,12.4834c-6.3501,0 -11.5166,5.16602 -11.5166,11.5166s5.1665,11.5166 11.5166,11.5166c6.35059,0 11.51709,-5.16602 11.51709,-11.5166s-5.16651,-11.5166 -11.51709,-11.5166zm4.36132,12.14062l-6.30322,3.67969c-0.11328,0.06543 -0.23779,0.09863 -0.3623,0.09863c-0.12256,0 -0.24512,-0.03223 -0.35693,-0.0957c-0.22607,-0.12988 -0.36084,-0.36328 -0.36084,-0.62402l0,-7.36523c0,-0.26074 0.13525,-0.49316 0.36133,-0.62305c0.22559,-0.12988 0.49512,-0.12891 0.71973,0.00293l6.30176,3.68652c0.22266,0.12988 0.35547,0.36133 0.35596,0.61914c-0.00002,0.25879 -0.13283,0.49023 -0.35549,0.62109z"/>
 </g>
</svg>